# xmcd CD database file
#
# Track frame offsets:
#	150
#	17834
#	36324
#	51776
#	68658
#	84705
#	101434
#	118749
#	137763
#	154705
#	170402
#	188354
#	205411
#
# Disc length: 2947 seconds
#
# Revision: 3
# Processed by: cddbd v1.5.1PL0 Copyright (c) Steve Scherf et al.
# Submitted via: CDex 1.51
#
DISCID=ab0b810d
DTITLE=Avril Lavigne - Let Go
DYEAR=2002
DGENRE=Pop
TTITLE0=Losing Grip
TTITLE1=Complicated
TTITLE2=Sk8er Boi
TTITLE3=I'm With You
TTITLE4=Mobile
TTITLE5=Unwanted
TTITLE6=Tomorrow
TTITLE7=Anything But Ordinary
TTITLE8=Things I'll Never Say
TTITLE9=My World
TTITLE10=Nobody's Fool
TTITLE11=Too Much To Ask
TTITLE12=Naked
EXTD=YEAR: 2002
EXTT0=
EXTT1=
EXTT2=
EXTT3=
EXTT4=
EXTT5=
EXTT6=
EXTT7=
EXTT8=
EXTT9=
EXTT10=
EXTT11=
EXTT12=
PLAYORDER=
